<svg width="19" height="19" viewBox="0 0 19 19" fill="none" xmlns="http://www.w3.org/2000/svg">
<path d="M5.71289 4H7.10938L12.793 19H11.25L9.41406 14H3.34961L1.55273 19H0L5.71289 4ZM3.7793 12.7598H8.94531L6.66992 6.62695C6.53971 6.2819 6.44857 5.93034 6.39648 5.57227H6.34766C6.27604 5.93685 6.17839 6.28841 6.05469 6.62695L3.7793 12.7598ZM15.6641 1.76367L13.418 4.00977L12.5391 3.12109L15.6641 -0.00390625L18.7891 3.12109L17.9004 4.00977L15.6641 1.76367ZM15.625 7.49609L17.8711 5.25L18.75 6.12891L15.625 9.25391L12.5 6.12891L13.3789 5.25L15.625 7.49609Z" fill="white"/>
</svg>
