<svg width="401" height="456" viewBox="0 0 401 456" fill="none" xmlns="http://www.w3.org/2000/svg">
<path fill-rule="evenodd" clip-rule="evenodd" d="M137.134 183.104C137.134 183.104 144.344 200.98 150.605 209.266C159.491 221.025 172.179 230.794 176.943 239.965C188.265 261.757 183.243 272.416 183.243 272.416C183.243 272.416 177.262 248.925 168.689 237.451C162.146 228.694 149.295 218.982 144.999 211.79C137.261 198.835 133.263 186.424 133.263 186.424L137.134 183.104Z" fill="#F0A613"/>
<path d="M299.773 132.663C300.079 129.351 302.586 126.869 305.158 125.275C309.809 122.394 315.285 121.269 320.529 122.119C322.903 122.504 324.714 119.931 326.41 118.003C330.813 113 337.543 111.173 343.684 112.329C349.825 113.485 355.39 117.342 359.872 122.255C364.354 127.167 367.853 133.111 371.09 139.157C371.77 140.425 373.345 140.458 374.649 140.386C377.463 140.229 380.425 140.317 382.883 141.882C385.342 143.448 387.07 146.922 386.075 149.92C385.609 151.324 384.619 152.443 383.489 153.218C381.235 154.763 378.502 155.029 375.877 155.257C358.375 156.777 340.873 158.296 323.371 159.816C318.582 160.232 313.718 160.643 309.015 159.535C304.312 158.427 299.707 155.577 297.3 150.851C294.892 146.126 295.295 139.394 298.988 135.903C299.769 135.165 299.666 133.811 299.773 132.663" fill="#F0A613"/>
<path d="M241.188 163.157C245.008 168.147 264.727 166.4 265.366 175.529C263.107 176.233 260.848 176.938 258.589 177.643C254.916 178.788 251.202 179.953 247.879 182.07C246.32 183.063 244.466 184.291 242.88 183.354C236.749 179.73 229.618 178.604 222.739 179.352C215.86 180.1 209.206 182.649 202.963 186.019C199.704 187.778 196.032 189.81 192.658 188.356C180.342 183.046 166.292 183.138 154.032 188.611C151.858 189.581 149.435 188.505 147.295 187.44C144.981 186.289 142.668 185.137 140.354 183.986C143.338 180.105 156.095 174.705 158.696 170.949C159.153 170.289 176.188 156.856 194.867 162.925C195.704 162.479 224.756 156.856 241.188 163.157Z" fill="#F0A613"/>
<path fill-rule="evenodd" clip-rule="evenodd" d="M164.836 226.595C154.004 214.888 141.499 203.038 138.583 186.372C143.936 202.006 155.824 213.262 166.25 225.134C176.676 237.006 186.552 251.814 185.907 268.576C202.955 264.344 220.621 263.352 237.952 265.654C239.729 256.556 244.9 248.896 248.958 240.799C259.017 220.725 262.418 197.357 265.65 174.547C266.467 168.78 260.258 165.362 255.28 163.919C250.309 162.479 245.337 161.038 240.366 159.598C231.023 156.891 221.343 154.164 211.839 156.015C205.413 157.267 199.067 160.597 192.64 159.35C182.41 157.366 171.556 159.879 162.823 166.254C158.432 169.459 154.53 173.614 149.738 175.959C139.651 180.894 130.767 188.964 124.305 199.06C120.929 179.202 126.617 158.879 133.267 140.12C140.7 119.15 150.032 97.9333 166.025 84.5016C189.475 64.8087 220.048 68.6417 244.441 86.7918C268.834 104.942 283.739 134.872 288.555 167.565C289.116 171.368 289.513 175.484 287.938 178.898C286.364 182.313 285.77 184.289 283.203 181.77C281.015 179.622 278.687 177.395 275.848 176.777C273.009 176.159 269.565 177.836 269.014 181.063C264.984 204.694 260.751 228.925 249.552 249.352C246.635 254.671 243.239 259.75 241.384 265.653C239.965 270.17 239.508 274.992 239.061 279.762C238.129 289.7 237.197 299.639 236.265 309.577C235.872 313.766 235.325 318.328 232.641 321.232C230.079 324.006 226.265 324.504 222.741 324.86C211.298 326.016 199.854 327.172 188.41 328.328C186.363 328.534 184.043 328.64 182.548 327.037C181.397 325.802 181.077 323.889 180.851 322.107C179.243 309.464 179.244 296.557 180.852 283.913C183.16 265.773 176.021 247.213 164.776 234.081C158.916 227.237 152.006 221.642 146.156 214.788C140.305 207.934 135.409 199.319 135.058 189.775C139.039 202.319 146.374 213.456 155.84 221.328C169.986 233.092 180.064 251.014 183.52 270.551C186.237 253.841 175.667 238.302 164.836 226.595Z" fill="#F0A613"/>
<path fill-rule="evenodd" clip-rule="evenodd" d="M135.565 264.776C133.848 263.706 133.216 261.306 132.765 259.14C130.55 248.512 128.932 237.725 127.921 226.864C127.857 226.173 127.828 225.376 128.27 224.896C129.216 226.166 129.383 227.939 129.529 229.595C130.573 241.501 132.597 253.296 135.565 264.776Z" fill="#00160A"/>
<path fill-rule="evenodd" clip-rule="evenodd" d="M271.685 228.575C273.24 222.66 274.387 216.605 275.111 210.486C275.209 209.657 275.484 208.615 276.217 208.551C276.644 208.976 276.603 209.733 276.522 210.373C275.833 215.829 274.849 221.237 273.578 226.556C273.32 227.636 272.598 228.992 271.685 228.575H271.685Z" fill="#00160A"/>
<path fill-rule="evenodd" clip-rule="evenodd" d="M247.709 226.093C248.136 226.806 248.002 227.76 247.83 228.601C246.797 233.646 244.975 238.482 242.477 242.813C241.781 241.828 242.42 240.401 243.006 239.327C244.563 236.469 245.707 233.321 246.378 230.047C246.663 228.658 246.893 227.176 247.709 226.093H247.709Z" fill="#00160A"/>
<path fill-rule="evenodd" clip-rule="evenodd" d="M241.048 235.254C240.405 234.623 240.693 233.449 241.001 232.55C241.99 229.659 242.655 226.626 242.975 223.546C243.081 222.525 243.249 221.323 244.059 220.865C244.44 221.257 244.383 221.943 244.295 222.519C243.624 226.894 242.925 231.36 241.048 235.254Z" fill="#00160A"/>
<path fill-rule="evenodd" clip-rule="evenodd" d="M187.547 251.561C187.735 251.37 188.029 251.567 188.203 251.774C188.986 252.707 189.453 253.974 189.487 255.263C188.44 254.625 187.672 253.423 187.462 252.093C187.433 251.907 187.423 251.687 187.547 251.561L187.547 251.561Z" fill="#00160A"/>
<path fill-rule="evenodd" clip-rule="evenodd" d="M269.977 212.489C269.698 218.107 268.57 223.669 266.657 228.859C266.607 228.993 266.554 229.132 266.457 229.227C266.173 229.505 265.694 229.206 265.593 228.795C265.491 228.385 265.636 227.954 265.773 227.557C267.123 223.673 268.018 219.586 268.428 215.436C268.55 214.202 268.892 212.634 269.977 212.489L269.977 212.489Z" fill="#00160A"/>
<path fill-rule="evenodd" clip-rule="evenodd" d="M185.722 241.873C183.884 239.047 182.405 235.919 181.347 232.616C181.211 232.192 181.294 231.475 181.678 231.593C181.822 231.637 181.908 231.801 181.979 231.951C183.575 235.335 185.171 238.72 186.767 242.104C186.686 242.613 185.992 242.289 185.722 241.873H185.722Z" fill="#00160A"/>
<path fill-rule="evenodd" clip-rule="evenodd" d="M133.384 183.145C132.54 182.647 132.506 181.308 132.607 180.232C134.497 160.186 143.079 141.049 156.239 127.538C156.541 130.081 154.815 132.284 153.284 134.17C142.381 147.601 135.312 164.997 133.384 183.145Z" fill="#00160A"/>
<path fill-rule="evenodd" clip-rule="evenodd" d="M244.011 183.125C244.252 176.543 243.284 169.298 241.188 163.157C245.008 168.147 245.167 175.408 245.126 182.024C251.22 177.902 258.276 175.638 265.366 175.529C263.107 176.234 260.848 176.938 258.589 177.643C254.916 178.788 251.202 179.953 247.879 182.07C246.32 183.063 244.466 184.291 242.88 183.354C236.749 179.73 229.618 178.604 222.739 179.352C215.86 180.1 209.206 183.257 202.963 186.627C199.704 188.386 196.032 190.418 192.658 188.964C180.342 183.654 166.292 183.139 154.032 188.611C151.858 189.581 149.435 188.505 147.295 187.44C144.981 186.289 142.668 185.138 140.354 183.986C143.044 184.628 149.723 187.36 149.723 187.36C149.723 187.36 151.647 187.625 152.253 186.785C152.858 185.944 153.049 184.827 153.268 183.77C154.228 179.115 156.095 174.705 158.696 170.949C159.153 170.289 160.132 169.673 160.496 170.404C156.896 175.148 154.496 181.056 153.653 187.248C166.772 181.621 181.742 181.799 194.755 187.735C195.998 179.548 196.036 171.126 194.867 162.925C195.704 162.479 196.319 163.897 196.401 164.944C197.001 172.571 196.893 180.27 196.08 187.872C203.606 183.738 211.411 180.002 219.663 178.495C227.915 176.987 236.724 178.471 244.011 183.125Z" fill="#00160A"/>
<path fill-rule="evenodd" clip-rule="evenodd" d="M148.358 166.781C152.293 153.978 158.425 142.053 166.309 131.877C166.887 131.131 167.575 130.338 168.449 130.304C169.323 130.271 170.143 131.57 169.526 132.275C160.456 142.645 153.381 155.261 148.938 168.987C148.139 169.011 148.094 167.64 148.358 166.781H148.358Z" fill="#00160A"/>
<path fill-rule="evenodd" clip-rule="evenodd" d="M135.929 224.437C136.044 224.596 136.057 224.818 136.066 225.024C136.444 233.551 138.349 241.883 140.245 250.144C140.326 250.497 139.873 250.752 139.589 250.583C139.305 250.415 139.18 250.036 139.081 249.689C136.87 241.949 135.459 233.915 134.886 225.803C134.857 225.398 134.837 224.962 135.026 224.618C135.216 224.274 135.703 224.123 135.929 224.437H135.929Z" fill="#00160A"/>
<path fill-rule="evenodd" clip-rule="evenodd" d="M195.165 155.194C194.375 155.231 194.118 154.011 194.129 153.112C194.249 143.721 194.368 134.33 194.488 124.938C194.501 123.901 194.748 122.551 195.654 122.437C196.46 123.51 196.443 125.071 196.383 126.48C195.977 136.051 195.571 145.623 195.165 155.194Z" fill="#00160A"/>
<path fill-rule="evenodd" clip-rule="evenodd" d="M271.207 169.567C272.957 166.336 272.839 162.271 272.544 158.491C272.028 151.87 271.142 145.287 269.893 138.794C269.774 138.171 269.702 137.387 270.163 137.025C270.544 136.726 271.1 136.932 271.399 137.335C271.697 137.738 271.802 138.276 271.893 138.793C273.325 146.865 273.978 155.116 273.834 163.349C273.781 166.41 273.34 170.002 270.977 171.47C270.522 170.999 270.885 170.162 271.207 169.567H271.207Z" fill="#00160A"/>
<path fill-rule="evenodd" clip-rule="evenodd" d="M243.489 147.808C244.083 150.81 243.831 154.021 242.779 156.856C242.056 155.973 242.259 154.588 242.384 153.391C242.87 148.739 241.438 144.106 239.676 139.871C237.915 135.636 235.786 131.547 234.727 127.019C234.568 126.338 234.592 125.352 235.203 125.231C235.719 125.129 236.07 125.793 236.263 126.347C238.242 132.05 240.222 137.753 242.202 143.456C242.696 144.881 243.193 146.313 243.489 147.808Z" fill="#00160A"/>
<path fill-rule="evenodd" clip-rule="evenodd" d="M297.099 130.84C297.405 127.528 299.913 125.045 302.484 123.452C307.135 120.57 312.612 119.446 317.856 120.296C320.23 120.681 322.04 118.108 323.737 116.18C328.14 111.176 334.869 109.35 341.011 110.505C347.152 111.661 352.717 115.519 357.199 120.431C361.681 125.344 365.179 131.288 368.417 137.333C369.096 138.601 370.672 138.635 371.976 138.562C374.79 138.405 377.751 138.494 380.21 140.059C382.668 141.625 384.396 145.099 383.401 148.097C382.936 149.501 381.946 150.62 380.816 151.395C378.562 152.94 375.828 153.206 373.204 153.434C355.702 154.953 338.199 156.473 320.697 157.993C315.908 158.409 311.044 158.82 306.341 157.712C301.638 156.604 297.034 153.754 294.626 149.028C292.219 144.302 292.621 137.571 296.315 134.08C297.095 133.342 296.993 131.987 297.099 130.84M303.729 124.479C301.634 125.615 299.543 127.287 298.853 129.807C298.607 130.704 298.556 131.658 298.328 132.561C297.736 134.905 296.031 136.665 295.131 138.878C293.256 143.492 295.393 149.23 298.969 152.28C302.545 155.331 307.175 156.237 311.634 156.594C327.683 157.88 343.64 153.249 359.724 152.789C366.041 152.608 372.559 153.036 378.469 150.491C380.706 149.528 383.164 147.09 382.204 144.599C381.961 143.97 381.524 143.465 381.066 143.017C378.237 140.25 374.185 139.192 370.577 140.277C368.738 140.83 367.201 138.708 366.194 136.872C361.811 128.884 356.848 120.922 349.767 116.042C342.686 111.162 332.977 110.095 326.391 115.8C323.431 118.364 320.678 122.347 316.977 121.901C312.466 121.357 307.825 122.26 303.729 124.479Z" fill="#00160A"/>
<path fill-rule="evenodd" clip-rule="evenodd" d="M58.6282 101.073C58.0377 103.17 58.7821 105.426 59.5892 107.427C60.5272 109.752 62.0688 112.375 64.314 112.214C71.2474 111.716 78.1807 111.218 85.114 110.72C86.1185 110.648 87.5005 110.946 87.5065 112.09C78.8121 112.881 70.1178 113.673 61.4234 114.464C55.5751 114.996 49.4598 115.627 44.5217 119.23C39.5835 122.832 36.3647 130.429 39.0284 136.373C40.0377 138.625 42.0185 140.508 44.2405 140.433C50.229 140.23 56.2176 140.027 62.2061 139.825C63.6013 139.777 65.5108 140.278 65.4483 141.864C55.9314 141.217 46.3583 141.645 36.9154 143.14C33.5252 143.676 30.0379 144.4 27.1949 146.567C24.3519 148.735 22.3091 152.714 23.1051 156.5C23.6546 159.113 25.4544 161.211 27.5358 162.482C29.6171 163.753 31.9731 164.304 34.303 164.749C59.0103 169.466 84.357 163.949 109.345 166.01C112.14 166.24 115.167 166.687 117.158 168.93C95.6008 164.225 73.369 169.476 51.4423 168.296C46.5618 168.033 41.6994 167.452 36.8403 166.87C32.863 166.394 28.696 165.841 25.4149 163.241C23.8363 161.99 22.513 160.261 21.8526 158.206C20.2166 153.115 23.1036 147.298 27.1718 144.472C31.2399 141.647 36.1764 141.088 40.9237 140.597C37.0437 137.577 35.8902 131.218 37.5688 126.224C39.2475 121.231 43.2402 117.589 47.6162 115.635C51.9923 113.681 56.76 113.209 61.4562 112.957C60.0713 110.895 58.6657 108.79 57.8916 106.348C57.1175 103.907 57.0604 101.031 58.2956 98.849C59.1546 97.3313 60.5323 96.3041 61.9069 95.4021C75.0571 86.7737 90.953 85.7718 106.131 86.1997C110.255 86.316 114.513 86.5592 118.222 88.6132C123.976 91.7996 127.474 99.1671 127.509 106.445C127.543 113.722 124.447 120.744 119.895 125.861C119.165 124.709 120.078 123.178 120.879 122.088C124.587 117.041 126.693 110.311 125.905 103.796C125.116 97.2811 121.185 91.1871 115.705 89.0845C113.415 88.2058 110.97 88.0202 108.557 87.8804C92.8627 86.971 76.4147 87.905 62.6695 96.5666C60.9774 97.6328 59.2184 98.9785 58.6282 101.073Z" fill="#00160A"/>
<path fill-rule="evenodd" clip-rule="evenodd" d="M164.836 226.595C154.004 214.888 141.499 203.038 138.583 186.372C143.936 202.006 155.824 213.262 166.25 225.134C176.676 237.006 186.552 251.814 185.907 268.576C202.955 264.344 220.621 263.352 237.952 265.654C239.729 256.556 244.9 248.896 248.958 240.799C259.017 220.725 262.418 197.356 265.65 174.547C266.467 168.78 260.258 165.362 255.28 163.919C250.309 162.479 245.337 161.038 240.366 159.598C231.023 156.891 221.343 154.164 211.839 156.015C205.413 157.267 199.067 160.597 192.64 159.35C182.41 157.366 171.556 159.879 162.823 166.254C158.432 169.459 154.571 173.815 149.738 175.959C139.273 180.601 133.264 186.224 124.305 199.06C120.929 179.202 126.617 158.879 133.267 140.12C140.7 119.15 150.032 97.9332 166.025 84.5015C189.475 64.8086 223.79 66.8176 248.183 84.9678C272.576 103.118 287.481 134.872 292.298 167.565C292.858 171.368 293.255 175.484 291.681 178.898C290.107 182.313 285.77 184.289 283.203 181.77C281.015 179.622 278.687 177.395 275.848 176.777C273.009 176.159 269.565 177.836 269.014 181.063C264.984 204.694 260.751 228.925 249.552 249.352C246.635 254.671 243.239 259.75 241.384 265.653C239.965 270.17 239.508 274.992 239.061 279.762C238.129 289.7 237.197 299.638 236.265 309.577C235.872 313.766 235.325 318.328 232.641 321.232C230.079 324.006 226.265 324.504 222.741 324.86C211.298 326.016 199.854 327.172 188.41 328.327C186.363 328.534 184.043 328.64 182.548 327.037C181.397 325.802 181.077 323.889 180.851 322.107C179.243 309.464 179.244 296.557 180.852 283.913C183.16 265.773 176.021 247.213 164.776 234.081C158.916 227.237 152.006 221.642 146.156 214.788C140.305 207.934 135.409 199.319 135.058 189.775C139.039 202.318 146.374 213.456 155.84 221.328C169.986 233.092 180.064 251.014 183.52 270.551C186.237 253.841 175.667 238.302 164.836 226.595ZM189.13 157.045C193.732 157.556 198.552 158.857 202.847 156.909C214.414 151.663 227.831 151.94 239.222 157.661C244.084 160.102 249.557 160.237 254.792 161.279C260.027 162.321 265.554 164.696 268.219 169.925C271.213 175.796 280.009 174.173 283.417 179.744C284.831 182.055 288.308 181.174 289.647 178.807C290.985 176.439 290.805 173.392 290.505 170.598C288.07 147.857 280.746 125.559 268.107 107.719C255.468 89.8795 237.337 76.7607 217.445 73.1336C197.553 69.5066 176.089 75.9182 161.367 91.5558C152.456 101.021 146.275 113.3 140.844 125.714C131.386 147.337 123.643 170.943 125.171 195.031C131.519 186.295 138.415 177.13 147.937 173.785C150.21 172.986 152.702 172.473 154.427 170.61C163.574 160.732 176.575 155.65 189.13 157.045ZM199.304 306.081C199.269 311.888 200.034 317.701 201.562 323.242C201.693 323.715 201.854 324.224 202.224 324.487C202.584 324.742 203.042 324.693 203.463 324.636C208.58 323.94 213.697 323.244 218.815 322.548C219.002 322.523 219.212 322.483 219.324 322.31C219.441 322.131 219.405 321.882 219.364 321.664C218.443 316.741 217.522 311.819 216.601 306.896C216.549 306.619 216.49 306.326 216.318 306.122C216.107 305.87 215.779 305.811 215.475 305.767C210.449 305.044 205.371 304.774 200.307 304.962C200.011 304.973 199.679 305.004 199.484 305.259C199.318 305.477 199.305 305.792 199.304 306.081ZM215.544 285.562C215.376 285.3 215.057 285.248 214.773 285.22C209.614 284.701 204.407 284.786 199.263 285.473C198.965 285.513 198.65 285.563 198.419 285.781C198.041 286.139 198.038 286.786 198.067 287.344C198.239 290.658 198.41 293.971 198.582 297.285C198.624 298.094 198.901 299.162 199.613 299.121C204.658 298.833 209.725 299.044 214.738 299.749C215.428 299.846 215.694 298.764 215.693 297.973C215.687 294.068 215.681 290.163 215.675 286.258C215.675 286.017 215.67 285.757 215.544 285.562ZM183.561 308.076C183.172 308.277 182.773 308.502 182.509 308.885C182.089 309.494 182.107 310.343 182.145 311.116C182.277 313.828 182.409 316.54 182.541 319.252C182.608 320.625 182.679 322.02 183.088 323.313C183.497 324.607 184.3 325.807 185.434 326.286C186.367 326.68 187.401 326.548 188.389 326.41C190.26 326.148 192.131 325.887 194.002 325.626C194.77 325.519 195.565 325.401 196.223 324.936C194.469 318.88 193.304 312.605 192.755 306.26C192.717 305.816 192.191 305.711 191.799 305.739C188.959 305.943 186.153 306.739 183.561 308.076ZM233.897 300.813C234.451 296.921 235.005 293.028 235.559 289.135C235.607 288.794 235.648 288.412 235.472 288.131C235.293 287.845 234.956 287.767 234.651 287.711C230.596 286.971 226.53 286.302 222.456 285.706C222.15 285.661 221.779 285.648 221.603 285.935C221.498 286.107 221.501 286.333 221.509 286.542C221.656 290.6 221.803 294.659 221.951 298.717C221.964 299.088 221.995 299.502 222.239 299.748C222.411 299.922 222.651 299.971 222.878 300.012C226.299 300.64 229.719 301.268 233.139 301.896C233.587 301.979 233.824 301.323 233.897 300.813ZM198.343 277.848C198.27 278.297 198.245 278.871 198.596 279.091C198.764 279.197 198.969 279.179 199.161 279.158C204.524 278.572 209.887 277.986 215.25 277.401C215.527 277.37 215.818 277.334 216.041 277.145C216.345 276.888 216.438 276.426 216.51 276.003C216.947 273.431 217.384 270.859 217.822 268.287C217.884 267.921 217.922 267.475 217.666 267.242C217.488 267.079 217.235 267.093 217.007 267.115C211.866 267.604 206.725 268.093 201.583 268.583C201.164 268.623 200.725 268.67 200.37 268.927C199.769 269.363 199.587 270.25 199.457 271.047C199.086 273.314 198.715 275.581 198.343 277.848ZM222.506 269.388C222.305 271.618 222.104 273.848 221.903 276.078C221.87 276.445 221.842 276.839 221.999 277.162C222.231 277.639 222.767 277.778 223.24 277.869C227.543 278.693 231.846 279.517 236.15 280.341C236.328 280.375 236.518 280.408 236.685 280.327C237.002 280.172 237.072 279.706 237.095 279.314C237.267 276.436 237.305 273.548 237.21 270.666C237.194 270.17 237.171 269.66 236.993 269.206C236.454 267.828 234.849 267.599 233.523 267.569C230.416 267.497 227.31 267.425 224.204 267.353C223.882 267.346 223.544 267.342 223.259 267.512C222.7 267.845 222.57 268.674 222.506 269.388ZM268.318 174.536C266.097 177.828 265.488 182.125 264.924 186.224C262.071 206.958 258.372 228.173 248.339 245.788C244.902 251.822 240.618 257.78 240.132 264.948C242.025 257.486 247.266 251.838 250.864 245.237C253.504 240.393 255.266 235.006 256.879 229.611C260.774 216.588 263.91 203.272 266.259 189.779C267.103 184.928 267.936 179.825 270.683 175.991C269.75 175.98 268.836 175.418 268.318 174.536ZM191.328 299.895C191.626 299.806 191.946 299.703 192.14 299.431C192.348 299.138 192.357 298.73 192.357 298.354C192.353 294.776 192.349 291.198 192.345 287.619C192.345 287.362 192.338 287.082 192.194 286.883C191.988 286.596 191.607 286.607 191.283 286.647C188.787 286.958 186.314 287.516 183.902 288.315C183.619 288.409 183.323 288.516 183.122 288.761C182.891 289.042 182.832 289.449 182.786 289.83C182.317 293.694 182.13 297.601 182.227 301.5C182.235 301.817 182.276 302.195 182.524 302.341C182.696 302.442 182.903 302.389 183.09 302.333C185.836 301.52 188.582 300.708 191.328 299.895ZM231.544 319.171C233.363 316.685 233.379 313.138 233.304 309.906C233.289 309.276 232.638 308.965 232.101 308.814C229.227 308.008 226.308 307.413 223.368 307.033C223.11 307 222.828 306.975 222.614 307.14C222.286 307.392 222.289 307.932 222.332 308.38C222.73 312.553 223.492 316.681 224.603 320.685C224.732 321.149 224.902 321.661 225.289 321.87C225.498 321.982 225.738 321.986 225.969 321.979C228.063 321.91 230.204 321.003 231.544 319.171ZM187.607 271.039C186.893 271.273 186.164 271.547 185.602 272.1C185.068 272.624 184.728 273.358 184.464 274.102C183.624 276.465 183.433 279.05 183.252 281.59C183.238 281.785 183.229 281.999 183.333 282.153C183.489 282.385 183.799 282.354 184.051 282.3C186.227 281.836 188.404 281.372 190.58 280.908C191.2 280.776 191.886 280.596 192.238 280.001C192.477 279.596 192.507 279.083 192.529 278.596C192.662 275.672 192.795 272.748 192.929 269.824C191.13 270.063 189.348 270.47 187.607 271.039ZM199.826 283.56C204.579 282.975 209.38 282.903 214.145 283.346C214.686 283.396 215.279 283.437 215.717 283.073C216.403 282.503 216.31 281.329 216.146 280.381C216.103 280.134 216.054 279.872 215.902 279.689C215.659 279.397 215.255 279.409 214.902 279.442C210.146 279.896 205.389 280.35 200.632 280.803C199.976 280.866 199.275 280.948 198.766 281.422C198.256 281.897 198.091 282.914 198.616 283.366C198.949 283.653 199.41 283.611 199.826 283.56ZM236.04 283.13C235.469 282.466 234.608 282.271 233.804 282.108C230.244 281.389 226.684 280.67 223.124 279.95C222.66 279.857 222.089 279.807 221.81 280.24C221.688 280.428 221.654 280.67 221.624 280.901C221.472 282.053 221.597 283.656 222.612 283.808C226.659 284.415 230.705 285.021 234.752 285.627C235.153 285.688 235.584 285.742 235.942 285.528C236.666 285.096 236.612 283.795 236.04 283.13ZM195.031 305.968C194.79 306.721 194.911 307.554 195.036 308.343C195.803 313.165 196.637 317.975 197.591 322.755C197.719 323.399 197.861 324.069 198.238 324.572C198.614 325.075 199.301 325.343 199.791 324.99C200.528 324.459 200.256 323.189 199.939 322.265C198.302 317.49 197.837 312.307 197.611 307.189C197.571 306.29 197.419 305.193 196.676 304.883C196.014 304.606 195.272 305.215 195.031 305.968ZM232.954 306.857C233.816 306.483 233.22 304.811 233.836 304.031C230.258 303.016 226.609 302.32 222.936 301.951C222.069 301.864 221.667 303.349 222.183 304.145C222.699 304.942 223.643 305.168 224.5 305.337C225.272 305.489 226.045 305.641 226.817 305.793C228.631 306.149 230.445 306.506 232.259 306.863C232.49 306.908 232.735 306.952 232.954 306.857ZM200.669 303.199C205.11 302.903 209.576 303.093 213.985 303.766C214.866 303.9 216.088 303.782 216.206 302.781C216.328 301.744 215.099 301.289 214.181 301.237C209.719 300.984 205.247 300.949 200.783 301.131C199.992 301.163 198.908 301.619 199.116 302.487C199.276 303.152 200.063 303.24 200.669 303.199ZM217.719 286.174C217.511 286.669 217.505 287.238 217.504 287.786C217.494 290.879 217.484 293.972 217.475 297.065C217.472 297.751 217.475 298.463 217.728 299.086C217.982 299.708 218.563 300.215 219.157 300.096C220.142 299.898 220.325 298.396 220.27 297.26C220.112 293.969 219.954 290.679 219.796 287.388C219.757 286.579 219.571 285.562 218.873 285.396C218.401 285.284 217.928 285.68 217.719 286.174ZM220.754 307.576C220.557 306.929 220.101 306.332 219.504 306.238C218.907 306.145 218.249 306.754 218.363 307.427C219.063 311.522 219.762 315.618 220.462 319.714C220.625 320.674 220.851 321.74 221.579 322.26C222.307 322.78 223.572 322.083 223.299 321.156C222.195 317.396 221.082 313.571 220.964 309.608C220.944 308.924 220.952 308.223 220.754 307.576ZM196.412 298.838C196.736 298.178 196.711 297.377 196.676 296.622C196.555 293.987 196.435 291.352 196.314 288.717C196.276 287.899 196.214 287.009 195.727 286.405C195.24 285.801 194.172 285.796 193.938 286.571C193.876 286.777 193.882 287 193.889 287.218C194 290.743 194.11 294.268 194.221 297.793C194.24 298.404 194.298 299.103 194.734 299.461C195.273 299.904 196.087 299.498 196.412 298.838ZM194.745 270.005C194.13 270.973 194.102 272.255 194.098 273.449C194.093 275.095 194.087 276.74 194.082 278.386C194.079 279.268 194.363 280.472 195.135 280.387C195.739 280.32 195.98 279.481 196.081 278.8C196.532 275.745 196.984 272.69 197.435 269.634C196.802 268.681 195.361 269.038 194.745 270.005ZM190.509 304.329C191.145 304.265 191.853 304.203 192.282 303.666C192.712 303.129 192.443 301.984 191.811 302.083C189.86 302.387 187.909 302.691 185.957 302.995C184.945 303.152 183.871 303.341 183.1 304.103C182.329 304.865 182.074 306.413 182.863 307.151C185.182 305.574 187.817 304.602 190.509 304.329ZM183.395 284.46C182.812 285.091 182.708 286.361 183.397 286.834C185.632 285.987 187.945 285.411 190.287 285.12C190.864 285.048 191.476 284.98 191.938 284.581C192.4 284.182 192.604 283.32 192.186 282.862C191.856 282.502 191.331 282.555 190.879 282.632C189.128 282.93 187.377 283.229 185.626 283.527C184.829 283.663 183.979 283.828 183.395 284.46ZM219.895 267.456C219.689 267.706 219.627 268.063 219.573 268.4C219.161 270.972 218.75 273.544 218.339 276.116C218.265 276.581 218.219 277.143 218.538 277.446C218.863 277.755 219.395 277.565 219.652 277.181C219.909 276.797 219.965 276.291 220.012 275.812C220.267 273.234 220.522 270.655 220.777 268.077C220.8 267.845 220.816 267.587 220.689 267.404C220.503 267.135 220.101 267.207 219.895 267.456ZM219.126 301.519C218.271 301.401 217.441 302.644 217.975 303.413C218.348 303.952 218.786 304.501 219.375 304.648C219.964 304.795 220.696 304.307 220.639 303.624C220.558 302.648 219.982 301.638 219.126 301.519ZM219.465 281.776C219.753 280.988 219.822 279.727 219.077 279.629C218.786 279.59 218.51 279.794 218.31 280.038C217.381 281.172 217.861 283.337 219.151 283.835C219.565 283.293 219.711 282.501 219.523 281.815C219.318 281.065 219.199 282.501 219.465 281.776ZM196.365 283.219C196.191 282.493 195.661 281.81 195 281.803C194.142 281.793 193.581 283.178 194.144 283.913C194.708 284.648 195.99 284.205 196.099 283.237C196.195 282.381 196.564 284.052 196.365 283.219ZM196.888 303.172C197.092 302.975 197.238 302.702 197.298 302.406C196.734 301.689 195.745 301.457 194.977 301.861C194.806 301.951 194.642 302.074 194.545 302.257C194.268 302.78 194.727 303.482 195.257 303.582C195.786 303.682 196.305 303.388 196.779 303.104L196.888 303.172Z" fill="#00160A"/>
</svg>
