<svg width="53" height="53" viewBox="0 0 53 53" fill="none" xmlns="http://www.w3.org/2000/svg">
<path d="M29.0292 1.6883C26.4422 0.653379 23.5562 0.653379 20.9692 1.6883L3.12252 8.8338C2.26044 9.17857 1.5213 9.77352 1.00031 10.542C0.479308 11.3105 0.200302 12.2174 0.199219 13.1459V36.8485C0.199064 37.778 0.477492 38.6863 0.998569 39.456C1.51965 40.2257 2.25946 40.8216 3.12252 41.1668L20.9692 48.3061C21.3371 48.4508 21.7091 48.5768 22.0852 48.6843L22.8385 45.6773C22.5965 45.6044 22.3576 45.5217 22.1224 45.4293L4.27262 38.29C3.9848 38.1747 3.73819 37.9756 3.56466 37.7187C3.39114 37.4617 3.29867 37.1586 3.29922 36.8485V13.3381L23.4492 21.3981V43.3523C23.9359 41.8953 24.7512 40.5654 25.8455 39.4773L26.5492 38.7705V21.3981L46.6992 13.3381V21.9096C47.7482 21.8619 48.7973 21.9983 49.7992 22.3126V13.1459C49.7988 12.2169 49.52 11.3093 48.999 10.5402C48.478 9.7711 47.7385 9.17567 46.8759 8.8307L29.0292 1.6883ZM22.1224 4.5713C23.9701 3.83219 26.0314 3.83219 27.8791 4.5713L44.0766 11.0503L37.0117 13.8713L17.9343 6.2453L22.1224 4.5713ZM13.7617 7.91L32.8391 15.5391L24.9992 18.6794L5.92182 11.0472L13.7617 7.91ZM28.0372 41.6659L43.0102 26.6929C43.5471 26.1479 44.1865 25.7145 44.8917 25.4177C45.5969 25.121 46.3538 24.9668 47.1188 24.9639C47.8839 24.9611 48.6419 25.1098 49.3492 25.4013C50.0565 25.6928 50.6992 26.1215 51.24 26.6626C51.7809 27.2037 52.2093 27.8464 52.5006 28.5539C52.7919 29.2613 52.9402 30.0194 52.9371 30.7845C52.934 31.5495 52.7795 32.3064 52.4825 33.0114C52.1855 33.7165 51.7519 34.3557 51.2066 34.8924L36.2336 49.8654C35.3607 50.7366 34.268 51.3547 33.0716 51.6541L28.4278 52.8166C27.9658 52.9319 27.4817 52.9256 27.0228 52.7984C26.5639 52.6712 26.1457 52.4273 25.8089 52.0906C25.4722 51.7538 25.2283 51.3357 25.1011 50.8767C24.9739 50.4178 24.9676 49.9338 25.0829 49.4717L26.2454 44.8279C26.543 43.6313 27.163 42.537 28.0372 41.6659Z" fill="#29206F"/>
</svg>
