<svg width="28" height="27" viewBox="0 0 28 27" fill="none" xmlns="http://www.w3.org/2000/svg">
<path d="M25.7 7.875L20.5 10.375M20.5 10.375L19.85 10.6875L14 13.5M20.5 10.375V14.75M20.5 10.375L8.15 4.125M14 13.5L2.3 7.875M14 13.5V25.375M18.6514 2.7275L21.2514 4.04C24.0477 5.45125 25.4465 6.15625 26.2239 7.425C27 8.6925 27 10.2713 27 13.4275V13.5738C27 16.7287 27 18.3075 26.2239 19.575C25.4465 20.8438 24.0477 21.55 21.2514 22.9613L18.6514 24.2725C16.3686 25.4238 15.2272 26 14 26C12.7728 26 11.6314 25.425 9.3486 24.2725L6.7486 22.96C3.9523 21.5488 2.5535 20.8438 1.7761 19.575C1 18.3075 1 16.7288 1 13.575V13.4287C1 10.2725 1 8.69375 1.7761 7.42625C2.5535 6.1575 3.9523 5.45125 6.7486 4.04125L9.3486 2.72875C11.6314 1.57625 12.7728 1 14 1C15.2272 1 16.3686 1.575 18.6514 2.7275Z" stroke="black" stroke-width="1.5" stroke-linecap="round"/>
</svg>
