<svg width="21" height="20" viewBox="0 0 21 20" fill="none" xmlns="http://www.w3.org/2000/svg">
<path fill-rule="evenodd" clip-rule="evenodd" d="M9.70016 0.0645996L0.194899 4.38811C0.0757042 4.44233 0 4.556 0 4.68069V15.3193C0 15.444 0.0757456 15.5576 0.194899 15.6119L9.70016 19.9354C9.88959 20.0215 10.1104 20.0215 10.2998 19.9354L19.8051 15.6119C19.9243 15.5576 20 15.444 20 15.3193V4.68069C20 4.556 19.9242 4.44233 19.8051 4.38811L10.2998 0.0645996C10.1104 -0.0215332 9.88959 -0.0215332 9.70016 0.0645996Z" fill="white"/>
<path fill-rule="evenodd" clip-rule="evenodd" d="M1.05734 4.43799C1.0211 4.48998 1 4.55119 1 4.61584V15.2544C1 15.3791 1.07575 15.4928 1.1949 15.547L10.7002 19.8705C10.7949 19.9136 10.8974 19.9351 11 19.9351V8.96045L1.05734 4.43799Z" fill="white"/>
<path fill-rule="evenodd" clip-rule="evenodd" d="M20.9427 4.43799C20.9789 4.48998 21 4.55119 21 4.61584V15.2544C21 15.3791 20.9242 15.4928 20.8051 15.547L11.2998 19.8705C11.2051 19.9136 11.1026 19.9351 11 19.9351V8.96045L20.9427 4.43799Z" fill="white"/>
<path fill-rule="evenodd" clip-rule="evenodd" d="M3.87896 14.7199C3.82879 14.7199 3.77759 14.7094 3.72946 14.6875L2.26194 14.02C2.09021 13.9419 2.01849 13.7478 2.10132 13.5863C2.18383 13.4248 2.39058 13.3575 2.56164 13.4349L4.02916 14.1025C4.20089 14.1806 4.27261 14.3747 4.18978 14.5362C4.13053 14.6523 4.00727 14.7199 3.87896 14.7199Z" fill="white"/>
<path fill-rule="evenodd" clip-rule="evenodd" d="M5.22956 13.8912C5.17939 13.8912 5.12819 13.8808 5.08005 13.8589L2.26383 12.578C2.09244 12.5 2.02038 12.3058 2.10322 12.1443C2.18572 11.9832 2.39281 11.9156 2.56354 11.993L5.37972 13.2739C5.55111 13.3519 5.62317 13.5461 5.54033 13.7076C5.48113 13.8236 5.35787 13.8912 5.22956 13.8912Z" fill="url(#paint0_linear_353_6772)"/>
<path fill-rule="evenodd" clip-rule="evenodd" d="M17.5731 5.96535L7.59549 1.42383L4.96533 2.625L14.9653 7.17355L17.5731 5.96535Z" fill="#FF8087"/>
<path fill-rule="evenodd" clip-rule="evenodd" d="M14.9653 7.17398V10.6977C14.9653 10.8175 15.0982 10.8961 15.2127 10.844L17.3782 9.85902C17.4974 9.8048 17.5731 9.69113 17.5731 9.56644V5.96582L14.9653 7.17398Z" fill="#E6646E"/>
<defs>
<linearGradient id="paint0_linear_353_6772" x1="3.82178" y1="11.9609" x2="3.82178" y2="13.8912" gradientUnits="userSpaceOnUse">
<stop stop-color="#00D059"/>
<stop offset="1" stop-color="#2BC48C"/>
</linearGradient>
</defs>
</svg>
