<svg width="10" height="10" viewBox="0 0 10 10" fill="none" xmlns="http://www.w3.org/2000/svg">
<path d="M1.34375 3.58984L4.63719 5.50609L7.90826 3.60108" stroke="white" stroke-width="1.5" stroke-linecap="round" stroke-linejoin="round"/>
<path d="M4.63672 8.90321V5.50195" stroke="white" stroke-width="1.5" stroke-linecap="round" stroke-linejoin="round"/>
<path d="M3.86502 1.73078L1.87329 2.84454C1.42198 3.09579 1.05273 3.72579 1.05273 4.24329V6.36205C1.05273 6.87955 1.42198 7.50954 1.87329 7.76079L3.86502 8.87455C4.29023 9.1108 4.9877 9.1108 5.41291 8.87455L7.40465 7.76079C7.85596 7.50954 8.22521 6.87955 8.22521 6.36205V4.24329C8.22521 3.72579 7.85596 3.09579 7.40465 2.84454L5.41291 1.73078C4.98397 1.49078 4.29023 1.49078 3.86502 1.73078Z" stroke="white" stroke-width="1.5" stroke-linecap="round" stroke-linejoin="round"/>
<path d="M6.5025 5.7654V4.39291L2.96289 2.33789" stroke="white" stroke-width="1.5" stroke-linecap="round" stroke-linejoin="round"/>
</svg>
