<svg width="20" height="26" viewBox="0 0 20 26" fill="none" xmlns="http://www.w3.org/2000/svg">
<path d="M9.99965 25.1875C9.99965 25.1875 7.20402 22.1644 5.97465 20.3938C4.4009 18.1288 2.0059 13.1706 2.0059 13.1706C1.49641 12.04 1.23309 10.8139 1.2334 9.57375C1.2334 4.735 5.1584 0.8125 9.99965 0.8125C14.8409 0.8125 18.7659 4.735 18.7659 9.57375C18.7659 10.8137 18.5021 12.0394 17.9928 13.1706C17.9928 13.1706 15.599 18.1287 14.0246 20.3944C13.5159 21.1269 12.739 22.0738 12.0053 22.93L8.47527 18.9488L9.45027 17.8237L8.53277 16.605L9.49215 15.5575L8.5609 14.3412L8.56277 12.8844C7.75496 12.5896 7.05728 12.0537 6.56426 11.3491C6.07124 10.6446 5.80672 9.80553 5.80652 8.94563C5.80702 7.8337 6.24908 6.76748 7.03551 5.98141C7.82193 5.19533 8.88835 4.75375 10.0003 4.75375C10.9928 4.7534 11.9532 5.10523 12.7106 5.7466C13.468 6.38798 13.9733 7.27729 14.1365 8.25628C14.2998 9.23527 14.1103 10.2404 13.6019 11.0928C13.0935 11.9452 12.2992 12.5896 11.3603 12.9113V18.2312" stroke="white" stroke-width="0.5" stroke-linecap="round" stroke-linejoin="round"/>
</svg>
