<svg width="108" height="98" viewBox="0 0 108 98" fill="none" xmlns="http://www.w3.org/2000/svg">
<path opacity="0.5" d="M54 70C62.6985 70 69.75 62.9485 69.75 54.25C69.75 45.5515 62.6985 38.5 54 38.5C45.3015 38.5 38.25 45.5515 38.25 54.25C38.25 62.9485 45.3015 70 54 70Z" stroke="#29206F" stroke-width="3"/>
<path opacity="0.5" d="M42.3345 96.2502H65.6655C82.0508 96.2502 90.246 96.2502 96.1312 92.3915C98.6713 90.728 100.859 88.58 102.568 86.0705C106.5 80.2955 106.5 72.2472 106.5 56.1612C106.5 40.0752 106.5 32.027 102.568 26.252C100.859 23.7425 98.6713 21.5945 96.1312 19.931C92.3512 17.4477 87.6157 16.5605 80.3655 16.2455C76.9057 16.2455 73.929 13.673 73.2517 10.3392C72.7342 7.8973 71.3894 5.70893 69.4447 4.14399C67.5 2.57904 65.0746 1.73349 62.5785 1.75024H45.4215C40.2345 1.75024 35.7668 5.3465 34.7483 10.3392C34.071 13.673 31.0943 16.2455 27.6345 16.2455C20.3895 16.5605 15.654 17.453 11.8687 19.931C9.33057 21.595 7.14519 23.743 5.4375 26.252C1.5 32.027 1.5 40.07 1.5 56.1612C1.5 72.2525 1.5 80.2902 5.43225 86.0705C7.13325 88.5695 9.31725 90.7167 11.8687 92.3915C17.754 96.2502 25.9492 96.2502 42.3345 96.2502Z" stroke="#29206F" stroke-width="3"/>
<path d="M90.75 38.5H85.5" stroke="#29206F" stroke-width="3" stroke-linecap="round"/>
</svg>
