<svg width="84" height="85" viewBox="0 0 84 85" fill="none" xmlns="http://www.w3.org/2000/svg">
<rect x="2" y="2" width="80" height="81" rx="8" fill="white" stroke="#F0A613" stroke-width="4"/>
<path d="M35.8822 14.0154L20.1371 22.7726C16.5694 24.7481 13.6504 29.7016 13.6504 33.7705V50.4297C13.6504 54.4987 16.5694 59.4521 20.1371 61.4277L35.8822 70.1848C39.2435 72.0424 44.7572 72.0424 48.1185 70.1848L63.8637 61.4277C67.4314 59.4521 70.3504 54.4987 70.3504 50.4297V33.7705C70.3504 29.7016 67.4314 24.7481 63.8637 22.7726L48.1185 14.0154C44.7277 12.1283 39.2435 12.1283 35.8822 14.0154Z" fill="#F0A613"/>
<path d="M26.3345 34.6082L41.9557 43.6483L57.4708 34.6612" fill="#F0A613"/>
<path d="M26.3345 34.6082L41.9557 43.6483L57.4708 34.6612" stroke="white" stroke-width="1.5" stroke-linecap="round" stroke-linejoin="round"/>
<path d="M41.9556 59.6771V43.6312" stroke="white" stroke-width="1.5" stroke-linecap="round" stroke-linejoin="round"/>
<path d="M38.2927 25.8337L28.8456 31.088C26.705 32.2733 24.9536 35.2454 24.9536 37.6867V47.6823C24.9536 50.1237 26.705 53.0957 28.8456 54.281L38.2927 59.5354C40.3095 60.6499 43.6177 60.6499 45.6345 59.5354L55.0816 54.281C57.2222 53.0957 58.9736 50.1237 58.9736 47.6823V37.6867C58.9736 35.2454 57.2222 32.2733 55.0816 31.088L45.6345 25.8337C43.6 24.7014 40.3095 24.7014 38.2927 25.8337Z" fill="#F0A613" stroke="white" stroke-width="1.5" stroke-linecap="round" stroke-linejoin="round"/>
<path d="M50.8006 44.8697V38.3948L34.0117 28.7" fill="#F0A613"/>
<path d="M50.8006 44.8697V38.3948L34.0117 28.7" stroke="white" stroke-width="1.5" stroke-linecap="round" stroke-linejoin="round"/>
</svg>
