<svg width="160" height="123" viewBox="0 0 160 123" fill="none" xmlns="http://www.w3.org/2000/svg">
<path d="M159.275 107.34L130.439 72.8565C130.133 72.4908 129.642 72.2293 129.07 72.1315C128.5 72.0305 127.897 72.1042 127.397 72.3288L122.548 74.5245L113.648 58.1695C111.988 55.2087 113.153 51.8213 116.538 49.7458L134.613 38.8216C136.772 37.4728 137.426 35.346 136.277 33.4021C135.126 31.4517 132.515 30.3418 129.622 30.5583C126.204 30.8519 121.599 32.406 117.934 33.7469L133.314 18.9188C135.324 17.2091 135.322 14.5305 133.36 12.8641C132.154 11.7654 130.353 11.1367 128.418 11.1367C128.418 11.1367 128.418 11.1367 128.416 11.1367C126.354 11.1367 124.417 11.8248 123.098 13.0261L115.394 20.0624L123.08 6.34903C123.833 5.1445 123.827 3.84534 123.061 2.69213C122.224 1.42986 120.573 0.491577 118.473 0.111452C115.466 -0.376134 112.083 0.775468 110.698 2.79639L103.307 15.047L104.744 7.31458C105.162 6.25279 104.962 5.09478 104.178 4.11479C103.32 3.03697 101.854 2.27672 100.203 2.03613C97.1717 1.54053 93.8566 2.78836 92.8198 4.80287C92.789 4.86381 92.7626 4.92637 92.7428 4.98892L88.195 18.675L86.7312 13.6741C86.5881 11.6724 84.2305 10.0172 81.457 10.0172C79.0532 10.0172 76.8365 11.1928 76.0661 12.8785C75.9869 13.0517 75.9494 13.233 75.9538 13.4142L76.3941 31.0572C76.4161 31.9329 77.3979 32.6322 78.5953 32.6322C78.6085 32.6322 78.624 32.6322 78.6372 32.6322C79.8522 32.6161 80.8208 31.8848 80.7988 30.9994L80.3629 13.7061C80.5831 13.4463 80.9947 13.225 81.457 13.225C81.9655 13.225 82.3353 13.6083 82.3353 13.8665C82.3353 13.9788 82.3529 14.0911 82.3837 14.2001L85.9079 26.2294C85.9299 26.308 85.9981 26.3689 86.0356 26.4427C86.0928 26.555 86.139 26.6673 86.2271 26.7667C86.3063 26.8549 86.4142 26.9223 86.5154 26.9961C86.6123 27.0682 86.6981 27.1468 86.8126 27.2046C86.9491 27.2735 87.1054 27.312 87.2617 27.3569C87.3585 27.3858 87.4378 27.4339 87.5412 27.4516C87.5632 27.4548 87.583 27.4532 87.605 27.4564C87.6491 27.4628 87.6909 27.4628 87.7349 27.4676C87.8428 27.4788 87.9528 27.4965 88.0607 27.4965C88.1532 27.4965 88.239 27.4724 88.3293 27.4628C88.3931 27.4564 88.4547 27.4708 88.5186 27.4612C88.5604 27.4548 88.5912 27.4339 88.6308 27.4259C88.8113 27.3906 88.9764 27.3329 89.1393 27.2655C89.212 27.2351 89.2934 27.2142 89.3594 27.1789C89.5708 27.0666 89.7579 26.9303 89.9032 26.7683C89.9142 26.7571 89.9164 26.7427 89.9252 26.7298C90.044 26.5903 90.1409 26.4379 90.1981 26.2695L96.9802 5.86144C97.2861 5.40273 98.2965 5.00977 99.2937 5.17016C99.7515 5.23752 100.146 5.43801 100.37 5.7219C100.48 5.85984 100.643 6.14052 100.498 6.4597C100.454 6.55433 100.425 6.65217 100.405 6.75161L96.8833 25.6777C96.8701 25.7547 96.9031 25.8252 96.9031 25.9006C96.8129 26.571 97.2861 27.2367 98.1798 27.5222C99.2981 27.8798 100.592 27.5093 101.079 26.6993L114.68 4.15649C115.11 3.52937 116.525 3.07546 117.463 3.23104C118.222 3.36898 118.832 3.68815 119.096 4.08592C119.288 4.37462 119.279 4.68899 119.039 5.07874L106.272 27.8542C106.107 28.1477 106.109 28.4492 106.181 28.7411C105.996 29.3249 106.25 29.9585 106.934 30.3578C107.887 30.9128 109.272 30.7973 110.027 30.1044L126.536 15.0294C127.005 14.6011 127.71 14.3461 128.416 14.3461C128.841 14.3461 129.446 14.4375 129.968 14.9123C130.58 15.4335 130.58 16.3141 129.884 16.9107L108.75 37.2803C108.134 37.8753 108.16 38.6998 108.814 39.2723C109.466 39.8449 110.577 40.0166 111.491 39.6813L119.778 36.6612C121.566 36.0068 127.001 34.0131 130.107 33.7469C131.5 33.625 132.083 34.427 132.231 34.6707C132.526 35.1696 132.552 35.8817 131.773 36.3709L113.712 47.2854C108.849 50.2703 107.183 55.1317 109.56 59.3676L118.744 76.2471L97.3037 85.9555L81.8422 65.2283C81.8114 65.1866 81.7563 65.1609 81.7211 65.1224C86.2711 56.1181 91.7016 43.0688 93.2226 39.2355C93.9645 37.6187 93.0267 35.856 90.9487 34.9466L89.8481 34.4654C83.4007 31.6474 79.2095 36.4495 77.8029 38.063L74.0872 42.5748L70.6554 10.3524C70.3318 7.75565 66.9221 5.77162 63.0061 6.03306C59.1737 6.53989 56.6511 9.04038 57.241 11.5778L57.8662 17.7752L51.3153 4.70182C50.5646 3.49889 49.0876 2.53816 47.265 2.06821C45.2993 1.56298 43.1222 1.65601 41.359 2.30238C39.6575 2.86535 38.3543 3.95119 37.7842 5.28243C37.2361 6.56074 37.4144 7.93048 38.2663 9.06925L42.6357 18.6221L37.9383 13.4623C37.8855 13.403 37.8238 13.3469 37.76 13.2939C35.4905 11.4029 31.5723 11.0886 28.8383 12.585C26.1198 14.0718 25.521 16.6252 27.4097 18.5724L33.91 27.3778C32.4087 26.5374 30.7842 25.7194 29.0342 24.9784C25.0786 23.3648 22.7012 23.8893 21.4003 24.6095C19.6503 25.583 19.2629 27.2768 19.6371 28.4685C19.9431 29.6233 21.6997 31.2143 25.2041 34.0661C25.6663 34.4414 26.0449 34.7493 26.2188 34.9017C32.6861 40.958 35.966 46.7946 36.5493 53.3033C37.2625 59.2826 36.5141 66.2339 34.3591 73.9599L30.9867 72.2229C30.4981 71.9727 29.8905 71.8781 29.305 71.9567C28.7173 72.0385 28.2022 72.2903 27.8742 72.6544L0.358574 103.289C-0.297398 104.022 -0.0288465 105.002 0.963916 105.494L35.3034 122.496C35.6908 122.68 36.12 122.772 36.5493 122.772C37.2141 122.772 37.8722 122.552 38.3037 122.138L68.2407 93.4297C68.6017 93.0817 68.7536 92.6438 68.6633 92.214C68.5709 91.7825 68.2451 91.3992 67.7586 91.149L64.186 89.3093L77.1997 72.8885C77.9063 71.9952 78.745 70.6543 79.6629 69.0167L93.5616 87.6509L88.4349 89.9717C87.4135 90.4352 87.0922 91.4104 87.7129 92.1626L106.424 114.778C106.837 115.278 107.566 115.552 108.31 115.552C108.697 115.552 109.089 115.479 109.446 115.321C110.487 114.864 110.822 113.879 110.194 113.119L92.6063 91.8595L127.837 75.9071L155.518 109.01C156.148 109.767 157.503 110.008 158.542 109.544C159.581 109.084 159.909 108.097 159.275 107.34ZM73.385 71.2862L60.5737 87.4504L38.2971 75.9825C40.8439 67.3968 41.7354 59.6724 40.9474 53.0579C40.3068 45.9141 36.7342 39.5193 29.655 32.8888C29.4128 32.6771 28.999 32.3387 28.4905 31.9249C27.4581 31.0844 24.317 28.5278 23.9802 27.9135C23.9692 27.859 23.956 27.806 23.9361 27.7515C23.8679 27.551 23.9648 27.2206 24.0792 27.1565C24.1849 27.0987 25.0302 27.0153 26.8572 27.7611C35.748 31.5287 41.4911 37.638 41.5483 37.6989C41.5703 37.723 41.6078 37.7342 41.6298 37.7583C41.7663 37.8914 41.9247 38.0053 42.103 38.0983C42.1383 38.1175 42.1691 38.14 42.2065 38.156C42.42 38.2539 42.6534 38.3196 42.8977 38.3581C42.9527 38.3677 43.0078 38.3677 43.0628 38.3742C43.1662 38.3854 43.2675 38.4046 43.371 38.4046C43.4854 38.4046 43.6021 38.387 43.7166 38.3742C43.754 38.3693 43.7892 38.3693 43.8266 38.3645C44.0247 38.3341 44.2228 38.2875 44.41 38.2138C44.4452 38.1993 44.465 38.1753 44.498 38.1592C44.531 38.1448 44.5684 38.1448 44.5993 38.1288C44.6917 38.0839 44.7445 38.0165 44.8238 37.9636C44.936 37.8882 45.0505 37.8192 45.1364 37.731C45.2178 37.6476 45.2684 37.5578 45.3279 37.4664C45.3873 37.3717 45.4511 37.2819 45.4864 37.1809C45.5194 37.0814 45.5216 36.982 45.5282 36.8809C45.5348 36.7783 45.548 36.6788 45.5282 36.5746C45.5084 36.4703 45.4511 36.3741 45.4027 36.273C45.3653 36.1961 45.3609 36.1159 45.3059 36.0421L31.2179 16.9556C31.1716 16.8867 31.1122 16.8193 31.0462 16.7535C30.3836 16.1088 30.8393 15.5025 31.4864 15.1496C32.3449 14.6829 33.6084 14.7727 34.3701 15.3389L47.9782 30.2889L48.108 30.5744C48.4162 31.2464 49.2747 31.6714 50.197 31.6714C50.2807 31.6714 50.3643 31.649 50.448 31.641C50.8574 31.6378 51.2668 31.58 51.6344 31.4036C52.647 30.9144 52.9244 29.9184 52.253 29.1806L51.9712 28.871L42.3804 7.90642C42.3298 7.79575 42.2615 7.68989 42.1801 7.58884C41.8609 7.2007 41.7927 6.7067 41.9952 6.23676C42.1096 5.9673 42.4178 5.47651 43.2609 5.19743C44.0379 4.91514 44.9625 4.87825 45.8033 5.09478C46.5055 5.27602 47.0581 5.61765 47.2518 5.91758L59.1385 29.6553C59.5545 30.4878 60.8181 30.916 61.9605 30.6129C62.896 30.3643 63.4243 29.7019 63.3693 29.0138C63.3737 28.9496 63.4089 28.8935 63.4023 28.8277L61.6171 11.1992C61.3816 10.1695 62.568 9.35635 63.607 9.212C64.2322 9.16869 64.8992 9.31464 65.4275 9.60976C65.7158 9.77176 66.2111 10.1198 66.2749 10.625L70.2372 47.8356C70.312 48.5317 70.9944 49.1123 71.9278 49.2727C72.8633 49.4331 73.8274 49.1363 74.3205 48.5381L81.5538 39.7519C84.8249 36.0084 86.3547 36.6788 87.5896 37.2177L88.6903 37.6989C88.8642 37.7743 89.1657 37.9828 89.0271 38.2843C86.2095 45.3736 77.2702 66.3719 73.385 71.2862Z" fill="url(#paint0_linear_353_22374)"/>
<defs>
<linearGradient id="paint0_linear_353_22374" x1="0" y1="61.3858" x2="159.598" y2="61.3858" gradientUnits="userSpaceOnUse">
<stop stop-color="#8B21CA"/>
<stop offset="0.3" stop-color="#F0A613"/>
<stop offset="0.67" stop-color="#FA4E0A"/>
<stop offset="1" stop-color="#29206F"/>
</linearGradient>
</defs>
</svg>
