<svg width="16" height="22" viewBox="0 0 16 22" fill="none" xmlns="http://www.w3.org/2000/svg">
<path d="M5.53115 5.19504C5.53115 3.89296 6.6254 2.83367 7.97044 2.83367C9.31548 2.83367 10.4097 3.89296 10.4097 5.19504V6.23477H13.3369V5.19504C13.3369 2.33048 10.9295 1.52588e-05 7.97044 1.52588e-05C5.01136 1.52588e-05 2.604 2.33048 2.604 5.19504V7.52434H5.53115V5.19504Z" fill="#29206F"/>
<path d="M7.97044 12.2939C7.20736 12.2939 6.58655 12.8949 6.58655 13.6336C6.58655 14.0703 6.80763 14.4809 7.17796 14.732L7.50149 14.9514L7.26828 16.9831H8.67255L8.43935 14.9514L8.76287 14.732C9.1332 14.481 9.35429 14.0703 9.35429 13.6336C9.35433 12.8949 8.73352 12.2939 7.97044 12.2939Z" fill="#29206F"/>
<path d="M0 8.8139V14.2861C0 18.5407 3.57554 22.002 7.9705 22.002C12.3655 22.002 15.941 18.5407 15.941 14.2861V8.8139H0ZM10.1609 18.2726H5.78006L6.09435 15.5345C5.56261 15.0421 5.25454 14.3561 5.25454 13.6335C5.25454 12.1838 6.47294 11.0043 7.97055 11.0043C9.46816 11.0043 10.6866 12.1838 10.6866 13.6335C10.6866 14.3561 10.3785 15.0421 9.84674 15.5345L10.1609 18.2726Z" fill="#29206F"/>
</svg>
