<svg width="20" height="20" viewBox="0 0 20 20" fill="none" xmlns="http://www.w3.org/2000/svg">
<g clip-path="url(#clip0_353_6791)">
<path d="M15.2187 3.25643L12.4999 1.69081C12.3172 1.58531 12.115 1.51791 11.9056 1.49267C11.6961 1.46743 11.4837 1.48486 11.2812 1.54393L6.87493 2.82831C6.56512 2.91805 6.302 3.12407 6.14056 3.40331L0.606183 13.0002C0.398992 13.3591 0.342844 13.7855 0.45009 14.1858C0.557337 14.5861 0.819194 14.9274 1.17806 15.1346L9.24993 19.7908C9.60881 19.998 10.0353 20.0541 10.4356 19.9469C10.8358 19.8397 11.1771 19.5778 11.3843 19.2189L16.9374 9.60331C17.0925 9.33719 17.1384 9.02132 17.0656 8.72206L15.9687 4.25643C15.9177 4.04774 15.8249 3.85154 15.696 3.67967C15.5671 3.5078 15.4047 3.36383 15.2187 3.25643Z" fill="white"/>
<path d="M7.06414 5.00244L2.40179 13.0746C2.18168 13.4557 2.31218 13.9431 2.69328 14.1632L9.32853 17.9956C9.70963 18.2157 10.197 18.0852 10.4171 17.7041L15.0795 9.63196C15.2996 9.25086 15.1691 8.76348 14.788 8.54336L8.15274 4.71095C7.77164 4.49083 7.28426 4.62134 7.06414 5.00244Z" fill="#2BC48C" fill-opacity="0.85"/>
<path d="M8.26572 10.1633L6.6147 9.21049C6.41888 9.09747 6.16887 9.164 6.05629 9.35907C5.94371 9.55414 6.01119 9.8039 6.20701 9.91691L7.85803 10.8697C8.05386 10.9828 8.30386 10.9162 8.41644 10.7212C8.52903 10.5261 8.46154 10.2763 8.26572 10.1633Z" fill="white"/>
<path d="M10.546 14.1053L5.4792 11.1812C5.28338 11.0682 5.03337 11.1347 4.92079 11.3298C4.80821 11.5248 4.87569 11.7746 5.07151 11.8876L10.1383 14.8117C10.3341 14.9247 10.5841 14.8582 10.6967 14.6631C10.8093 14.4681 10.7418 14.2183 10.546 14.1053Z" fill="white"/>
<path d="M7.9497 14.7724L4.53938 12.8042C4.34356 12.6912 4.09355 12.7577 3.98097 12.9528C3.86839 13.1479 3.93587 13.3976 4.13169 13.5107L7.54201 15.4788C7.73783 15.5918 7.98784 15.5253 8.10042 15.3302C8.213 15.1352 8.14552 14.8854 7.9497 14.7724Z" fill="white"/>
<path d="M14.9531 1.43457H11.8094C11.5986 1.43455 11.39 1.47717 11.1961 1.55988C11.0023 1.64258 10.8271 1.76366 10.6813 1.91582L7.50001 5.22832C7.27706 5.46131 7.15277 5.77146 7.15314 6.09395V17.1877C7.15314 17.6021 7.31776 17.9995 7.61078 18.2925C7.90381 18.5856 8.30124 18.7502 8.71564 18.7502H18.0406C18.455 18.7502 18.8525 18.5856 19.1455 18.2925C19.4385 17.9995 19.6031 17.6021 19.6031 17.1877V6.09395C19.6035 5.77146 19.4792 5.46131 19.2563 5.22832L16.0813 1.91582C15.9354 1.76366 15.7603 1.64258 15.5664 1.55988C15.3725 1.47717 15.1639 1.43455 14.9531 1.43457Z" fill="#8643FF"/>
<path d="M18.0094 7.02823V16.3501C18.009 16.4547 17.9879 16.5583 17.9475 16.6548C17.9071 16.7513 17.8481 16.839 17.7738 16.9127C17.6995 16.9864 17.6114 17.0447 17.5146 17.0844C17.4177 17.1241 17.314 17.1443 17.2094 17.1438H9.55312C9.4481 17.1451 9.34388 17.1255 9.24649 17.0861C9.1491 17.0468 9.06049 16.9885 8.98579 16.9147C8.91109 16.8409 8.85178 16.753 8.8113 16.656C8.77083 16.5591 8.74999 16.4551 8.75 16.3501V7.02823C8.75163 6.9244 8.7737 6.8219 8.81494 6.7266C8.85618 6.6313 8.9158 6.54506 8.99038 6.4728C9.06496 6.40054 9.15304 6.34368 9.2496 6.30547C9.34616 6.26726 9.4493 6.24845 9.55312 6.2501H17.2094C17.4183 6.24841 17.6194 6.32916 17.7692 6.47483C17.919 6.6205 18.0053 6.81934 18.0094 7.02823Z" fill="white"/>
<path d="M9.99373 8.39365C9.99373 8.05193 9.7167 7.7749 9.37498 7.7749C9.03325 7.7749 8.75623 8.05193 8.75623 8.39365V13.6874C8.75623 14.0291 9.03325 14.3062 9.37498 14.3062C9.7167 14.3062 9.99373 14.0291 9.99373 13.6874V8.39365Z" fill="white"/>
<path d="M9.99373 9.42832C9.99373 9.08659 9.7167 8.80957 9.37498 8.80957C9.03325 8.80957 8.75623 9.08659 8.75623 9.42832V12.1877C8.75623 12.5294 9.03325 12.8064 9.37498 12.8064C9.7167 12.8064 9.99373 12.5294 9.99373 12.1877V9.42832Z" fill="white"/>
<path d="M13.3813 4.12813C13.8352 4.12813 14.2031 3.76016 14.2031 3.30625C14.2031 2.85234 13.8352 2.48438 13.3813 2.48438C12.9274 2.48438 12.5594 2.85234 12.5594 3.30625C12.5594 3.76016 12.9274 4.12813 13.3813 4.12813Z" fill="white"/>
<path d="M13.8969 0.515625C13.8969 0.230853 13.666 0 13.3812 0C13.0965 0 12.8656 0.230853 12.8656 0.515625V3.20312C12.8656 3.4879 13.0965 3.71875 13.3812 3.71875C13.666 3.71875 13.8969 3.4879 13.8969 3.20312V0.515625Z" fill="white"/>
<path d="M19.6031 6.09395V17.1877C19.6031 17.6021 19.4385 17.9995 19.1455 18.2925C18.8525 18.5856 18.455 18.7502 18.0406 18.7502H12.8281C13.4254 18.2767 13.973 17.7438 14.4625 17.1596H17.2125C17.4238 17.1596 17.6265 17.0756 17.776 16.9262C17.9254 16.7767 18.0094 16.574 18.0094 16.3627V7.03145C18.0061 6.82256 17.9206 6.6234 17.7714 6.47714C17.6222 6.33089 17.4214 6.24935 17.2125 6.2502H16.3812C15.838 4.76996 14.9858 3.42237 13.8812 2.29707V1.43457H14.9375C15.1483 1.43455 15.3569 1.47717 15.5508 1.55988C15.7446 1.64258 15.9198 1.76366 16.0656 1.91582L19.2406 5.22832C19.4693 5.45883 19.5993 5.76927 19.6031 6.09395Z" fill="#8643FF"/>
<path d="M18.0094 7.03126V16.35C18.0094 16.5613 17.9254 16.764 17.776 16.9135C17.6266 17.0629 17.4239 17.1469 17.2125 17.1469H14.4625C15.7063 15.6564 16.5379 13.8661 16.8745 11.9542C17.2112 10.0424 17.0411 8.07569 16.3813 6.25001H17.2125C17.4214 6.24916 17.6223 6.3307 17.7714 6.47695C17.9206 6.62321 18.0061 6.82237 18.0094 7.03126Z" fill="white"/>
<path d="M13.3812 0.000151548C13.2445 0.000151548 13.1133 0.0544762 13.0166 0.151175C12.9199 0.247873 12.8656 0.379024 12.8656 0.515777V1.34703L12.9719 1.43453C13.3006 1.69829 13.6136 1.98106 13.9094 2.2814V0.515777C13.9094 0.446999 13.8956 0.378912 13.8689 0.315525C13.8423 0.252137 13.8031 0.19473 13.7539 0.146683C13.7047 0.0986358 13.6464 0.0609195 13.5824 0.0357544C13.5184 0.0105894 13.45 -0.00151579 13.3812 0.000151548Z" fill="white"/>
<path d="M13.3812 13.9033C13.0497 13.9033 12.7318 13.7716 12.4973 13.5372C12.2629 13.3028 12.1312 12.9848 12.1312 12.6533C12.1312 12.5704 12.1642 12.491 12.2228 12.4324C12.2814 12.3737 12.3608 12.3408 12.4437 12.3408C12.5266 12.3408 12.6061 12.3737 12.6647 12.4324C12.7233 12.491 12.7562 12.5704 12.7562 12.6533C12.7562 12.7769 12.7929 12.8978 12.8616 13.0006C12.9302 13.1033 13.0278 13.1834 13.1421 13.2307C13.2563 13.2781 13.3819 13.2904 13.5032 13.2663C13.6244 13.2422 13.7358 13.1827 13.8232 13.0953C13.9106 13.0079 13.9701 12.8965 13.9942 12.7753C14.0183 12.654 14.006 12.5283 13.9587 12.4141C13.9113 12.2999 13.8312 12.2023 13.7285 12.1337C13.6257 12.065 13.5048 12.0283 13.3812 12.0283C13.134 12.0283 12.8923 11.955 12.6868 11.8177C12.4812 11.6803 12.321 11.4851 12.2264 11.2567C12.1318 11.0283 12.107 10.7769 12.1552 10.5345C12.2035 10.292 12.3225 10.0693 12.4973 9.89444C12.6722 9.71962 12.8949 9.60057 13.1374 9.55234C13.3798 9.50411 13.6312 9.52886 13.8596 9.62347C14.088 9.71808 14.2832 9.8783 14.4206 10.0839C14.5579 10.2894 14.6312 10.5311 14.6312 10.7783C14.6312 10.8612 14.5983 10.9407 14.5397 10.9993C14.4811 11.0579 14.4016 11.0908 14.3187 11.0908C14.2358 11.0908 14.1564 11.0579 14.0978 10.9993C14.0392 10.9407 14.0062 10.8612 14.0062 10.7783C14.0062 10.6547 13.9696 10.5339 13.9009 10.4311C13.8322 10.3283 13.7346 10.2482 13.6204 10.2009C13.5062 10.1536 13.3805 10.1412 13.2593 10.1653C13.1381 10.1894 13.0267 10.249 12.9393 10.3364C12.8519 10.4238 12.7924 10.5352 12.7682 10.6564C12.7441 10.7776 12.7565 10.9033 12.8038 11.0175C12.8511 11.1317 12.9312 11.2293 13.034 11.298C13.1368 11.3667 13.2576 11.4033 13.3812 11.4033C13.7127 11.4033 14.0307 11.535 14.2651 11.7694C14.4995 12.0039 14.6312 12.3218 14.6312 12.6533C14.6312 12.9848 14.4995 13.3028 14.2651 13.5372C14.0307 13.7716 13.7127 13.9033 13.3812 13.9033Z" fill="white"/>
<path d="M13.3812 10.147C13.2983 10.147 13.2189 10.114 13.1603 10.0554C13.1016 9.99684 13.0687 9.91735 13.0687 9.83447V9.20947C13.0687 9.12659 13.1016 9.04711 13.1603 8.9885C13.2189 8.9299 13.2983 8.89697 13.3812 8.89697C13.4641 8.89697 13.5436 8.9299 13.6022 8.9885C13.6608 9.04711 13.6937 9.12659 13.6937 9.20947V9.83447C13.6937 9.91735 13.6608 9.99684 13.6022 10.0554C13.5436 10.114 13.4641 10.147 13.3812 10.147Z" fill="white"/>
<path d="M13.3812 14.4971C13.2983 14.4971 13.2189 14.4641 13.1603 14.4055C13.1016 14.3469 13.0687 14.2675 13.0687 14.1846V13.5908C13.0687 13.5079 13.1016 13.4285 13.1603 13.3698C13.2189 13.3112 13.2983 13.2783 13.3812 13.2783C13.4641 13.2783 13.5436 13.3112 13.6022 13.3698C13.6608 13.4285 13.6937 13.5079 13.6937 13.5908V14.1846C13.6937 14.2675 13.6608 14.3469 13.6022 14.4055C13.5436 14.4641 13.4641 14.4971 13.3812 14.4971Z" fill="white"/>
</g>
<defs>
<clipPath id="clip0_353_6791">
<rect width="20" height="20" fill="white"/>
</clipPath>
</defs>
</svg>
