<svg width="128" height="128" viewBox="0 0 128 128" fill="none" xmlns="http://www.w3.org/2000/svg">
<path d="M69.5007 32.8557L99.3382 40.7995M63.1132 56.5807L78.0257 60.5557M63.857 101.287L69.8194 102.881C86.6945 107.381 95.132 109.624 101.782 105.806C108.426 101.993 110.688 93.5995 115.207 76.8245L121.601 53.0932C126.126 36.312 128.382 27.9245 124.544 21.312C120.707 14.6995 112.276 12.4557 95.3945 7.96198L89.432 6.36823C72.557 1.86823 64.1195 -0.375521 57.4757 3.44323C50.8257 7.25573 48.5632 15.6495 44.0382 32.4245L37.6507 56.1557C33.1257 72.937 30.8632 81.3245 34.7069 87.937C38.5444 94.5432 46.9819 96.7932 63.857 101.287Z" stroke="black" stroke-width="1.5" stroke-linecap="round" stroke-linejoin="round"/>
<path d="M64.0002 119.912L58.0502 121.537C41.2127 126.118 32.8002 128.412 26.1627 124.518C19.5377 120.63 17.2752 112.08 12.7689 94.9678L6.38767 70.7678C1.87517 53.6615 -0.381084 45.1053 3.45017 38.3678C6.76267 32.5365 14.0002 32.749 23.3752 32.749" stroke="black" stroke-width="1.5" stroke-linecap="round" stroke-linejoin="round"/>
</svg>
