<svg width="17" height="17" viewBox="0 0 17 17" fill="none" xmlns="http://www.w3.org/2000/svg">
<path d="M16.3533 3.92841L8.84641 0.12476L8.84329 0.123199C8.50903 -0.0432149 8.11186 -0.0394961 7.78072 0.13316L4.56105 1.84193C4.53488 1.85302 4.50975 1.86646 4.48568 1.88194L0.627406 3.92964C0.240391 4.13228 0 4.52932 0 4.96631V12.0346C0 12.4716 0.240391 12.8686 0.627406 13.0713L7.77753 16.8661L7.78075 16.8678C7.94963 16.9559 8.13573 17 8.32187 17C8.50066 17 8.67953 16.9593 8.84329 16.8777L16.3533 13.0725C16.7522 12.873 17 12.4722 17 12.026V4.97497C17 4.52876 16.7522 4.1279 16.3533 3.92841ZM8.24224 1.01547C8.29102 0.990432 8.34926 0.989934 8.39847 1.01407L15.4252 4.57444L12.6905 5.93594L5.82077 2.30063L8.24224 1.01547ZM7.81681 15.7597L1.09271 12.1909L1.08949 12.1892C1.03169 12.159 0.995729 12.0998 0.995729 12.0346V5.41561L7.81681 8.97246V15.7597ZM8.31994 8.11184L1.53637 4.57454L4.75787 2.86482L11.5936 6.48206L8.31994 8.11184ZM16.0042 12.0259C16.0042 12.0926 15.9672 12.1524 15.9076 12.1821L8.81257 15.777V8.97887L12.0793 7.35252V9.05766C12.0793 9.33262 12.3022 9.55554 12.5772 9.55554C12.8521 9.55554 13.0751 9.33262 13.0751 9.05766V6.85676L16.0042 5.39848V12.0259Z" fill="#29206F"/>
</svg>
