<svg width="23" height="22" viewBox="0 0 23 22" fill="none" xmlns="http://www.w3.org/2000/svg">
<path d="M11.772 11.7342C14.8196 11.7342 17.2902 9.33127 17.2902 6.3671C17.2902 3.40293 14.8196 1 11.772 1C8.72429 1 6.25366 3.40293 6.25366 6.3671C6.25366 9.33127 8.72429 11.7342 11.772 11.7342Z" stroke="#05A8F5" stroke-width="2" stroke-miterlimit="10" stroke-linecap="round" stroke-linejoin="round"/>
<path d="M21.4938 19.9102C21.4938 15.394 17.7311 11.7344 13.0877 11.7344H10.4573C5.81388 11.7344 2.05115 15.394 2.05115 19.9102" stroke="#29206F" stroke-width="2" stroke-miterlimit="10" stroke-linecap="round" stroke-linejoin="round"/>
<g opacity="0.15">
<g opacity="0.15">
<path opacity="0.15" d="M10.7543 12.824C13.8019 12.824 16.2725 10.4211 16.2725 7.45694C16.2725 4.49278 13.8019 2.08984 10.7543 2.08984C7.70659 2.08984 5.23596 4.49278 5.23596 7.45694C5.23596 10.4211 7.70659 12.824 10.7543 12.824Z" stroke="#05A8F5" stroke-width="2" stroke-miterlimit="10" stroke-linecap="round" stroke-linejoin="round"/>
</g>
<path opacity="0.15" d="M20.4755 21C20.4755 16.4839 16.7128 12.8242 12.0694 12.8242H9.43894C4.79557 12.8242 1.03284 16.4839 1.03284 21" stroke="#05A8F5" stroke-width="2" stroke-miterlimit="10" stroke-linecap="round" stroke-linejoin="round"/>
</g>
</svg>
