<svg width="23" height="27" viewBox="0 0 23 27" fill="none" xmlns="http://www.w3.org/2000/svg">
<path d="M11.74 14.0717C14.7876 14.0717 17.2583 11.1591 17.2583 7.56612C17.2583 3.97319 14.7876 1.06055 11.74 1.06055C8.6923 1.06055 6.22168 3.97319 6.22168 7.56612C6.22168 11.1591 8.6923 14.0717 11.74 14.0717Z" stroke="#05A8F5" stroke-width="2" stroke-miterlimit="10" stroke-linecap="round" stroke-linejoin="round"/>
<path d="M21.4612 23.9813C21.4612 18.5072 17.6985 14.0713 13.0551 14.0713H10.4247C5.78129 14.0713 2.01855 18.5072 2.01855 23.9813" stroke="#29206F" stroke-width="2" stroke-miterlimit="10" stroke-linecap="round" stroke-linejoin="round"/>
<g opacity="0.15">
<g opacity="0.15">
<path opacity="0.15" d="M10.7214 15.393C13.7691 15.393 16.2397 12.4803 16.2397 8.88741C16.2397 5.29448 13.7691 2.38184 10.7214 2.38184C7.67375 2.38184 5.20312 5.29448 5.20312 8.88741C5.20312 12.4803 7.67375 15.393 10.7214 15.393Z" stroke="#05A8F5" stroke-width="2" stroke-miterlimit="10" stroke-linecap="round" stroke-linejoin="round"/>
</g>
<path opacity="0.15" d="M20.4427 25.3026C20.4427 19.8285 16.68 15.3926 12.0366 15.3926H9.4061C4.76273 15.3926 1 19.8285 1 25.3026" stroke="#05A8F5" stroke-width="2" stroke-miterlimit="10" stroke-linecap="round" stroke-linejoin="round"/>
</g>
</svg>
