<svg width="24" height="39" viewBox="0 0 24 39" fill="none" xmlns="http://www.w3.org/2000/svg">
<path d="M20.4793 3.05176e-05H3.01878C1.34896 3.05176e-05 0 1.27275 0 2.8421V36.1617C0 37.7261 1.34896 39 3.01878 39H20.4793C22.1465 39 23.5007 37.7273 23.5007 36.1617V2.8421C23.4993 1.27275 22.1465 3.05176e-05 20.4793 3.05176e-05ZM21.2362 31.5988H2.26441V4.79425H21.2362V31.5988ZM15.7972 2.88395H7.70215V2.05435H15.7985L15.7972 2.88395ZM19.2613 2.50484C19.2613 2.90611 18.9129 3.23105 18.4873 3.23105C18.0603 3.23105 17.7132 2.90488 17.7132 2.50484C17.7132 2.10481 18.0603 1.77863 18.4873 1.77863C18.9142 1.7774 19.2613 2.10358 19.2613 2.50484ZM15.4344 35.9721H8.06231V33.8402H15.4344V35.9721Z" fill="#29206F"/>
</svg>
