<svg width="23" height="36" viewBox="0 0 23 36" fill="none" xmlns="http://www.w3.org/2000/svg">
<path d="M18.7362 33.2871H5.04715C3.53425 33.2871 2.31299 32.0853 2.31299 30.5965V3.69059C2.31299 2.2018 3.53425 1 5.04715 1H18.7362C20.2491 1 21.4704 2.2018 21.4704 3.69059V30.5965C21.4704 32.0853 20.24 33.2871 18.7362 33.2871Z" stroke="#29206F" stroke-width="2" stroke-miterlimit="10" stroke-linecap="round" stroke-linejoin="round"/>
<path d="M11.8749 28.3061C13.2763 28.3061 14.4124 27.2204 14.4124 25.8811C14.4124 24.5418 13.2763 23.4561 11.8749 23.4561C10.4735 23.4561 9.3374 24.5418 9.3374 25.8811C9.3374 27.2204 10.4735 28.3061 11.8749 28.3061Z" fill="#05A8F5"/>
<g opacity="0.1">
<g opacity="0.1">
<path opacity="0.1" d="M17.433 35H3.74393C2.23102 35 1.00977 33.7982 1.00977 32.3094V5.40348C1.00977 3.91469 2.23102 2.71289 3.74393 2.71289H17.433C18.9459 2.71289 20.1671 3.91469 20.1671 5.40348V32.3094C20.1671 33.7982 18.9459 35 17.433 35Z" stroke="#29206F" stroke-width="2" stroke-miterlimit="10" stroke-linecap="round" stroke-linejoin="round"/>
</g>
<path opacity="0.1" d="M10.5881 29.7714C10.8196 29.7714 11.0073 29.5867 11.0073 29.3588C11.0073 29.131 10.8196 28.9463 10.5881 28.9463C10.3565 28.9463 10.1688 29.131 10.1688 29.3588C10.1688 29.5867 10.3565 29.7714 10.5881 29.7714Z" stroke="#29206F" stroke-width="2" stroke-miterlimit="10" stroke-linecap="round" stroke-linejoin="round"/>
</g>
</svg>
