<svg width="30" height="30" viewBox="0 0 30 30" fill="none" xmlns="http://www.w3.org/2000/svg">
<path fill-rule="evenodd" clip-rule="evenodd" d="M14.5502 0.0968994L0.292348 6.58217C0.113556 6.6635 0 6.834 0 7.02104V22.9789C0 23.1659 0.113618 23.3365 0.292348 23.4178L14.5502 29.9031C14.8344 30.0323 15.1656 30.0323 15.4497 29.9031L29.7076 23.4178C29.8864 23.3365 30 23.1659 30 22.9789V7.02104C30 6.834 29.8864 6.6635 29.7076 6.58217L15.4497 0.0968994C15.1656 -0.0322998 14.8344 -0.0322998 14.5502 0.0968994Z" fill="#29206F"/>
<path fill-rule="evenodd" clip-rule="evenodd" d="M0.0860067 6.65723C0.031654 6.73521 0 6.82703 0 6.924V22.8819C0 23.0689 0.113618 23.2394 0.292348 23.3208L14.5502 29.806C14.6923 29.8706 14.8461 29.9029 15 29.9029V13.4409L0.0860067 6.65723Z" fill="#29206F"/>
<path fill-rule="evenodd" clip-rule="evenodd" d="M29.914 6.65723C29.9683 6.73521 30 6.82703 30 6.924V22.8819C30 23.0689 29.8864 23.2394 29.7076 23.3208L15.4497 29.806C15.3077 29.8706 15.1539 29.9029 15 29.9029V13.4409L29.914 6.65723Z" fill="#29206F"/>
<path fill-rule="evenodd" clip-rule="evenodd" d="M4.31868 22.0798C4.24343 22.0798 4.16663 22.0641 4.09443 22.0313L1.89315 21.03C1.63556 20.9129 1.52798 20.6216 1.65223 20.3794C1.77598 20.1372 2.08612 20.0363 2.34271 20.1524L4.54399 21.1538C4.80158 21.2709 4.90916 21.5621 4.78491 21.8043C4.69604 21.9784 4.51116 22.0798 4.31868 22.0798Z" fill="#29206F"/>
<path fill-rule="evenodd" clip-rule="evenodd" d="M6.34458 20.8369C6.26933 20.8369 6.19253 20.8212 6.12033 20.7883L1.89599 18.8671C1.6389 18.75 1.53082 18.4587 1.65507 18.2165C1.77883 17.9747 2.08946 17.8734 2.34555 17.9895L6.56982 19.9108C6.82691 20.0279 6.93499 20.3191 6.81074 20.5613C6.72194 20.7354 6.53705 20.8369 6.34458 20.8369Z" fill="url(#paint0_linear_353_6699)"/>
<path fill-rule="evenodd" clip-rule="evenodd" d="M24.8599 8.94851L9.89348 2.13623L5.94824 3.93799L20.9482 10.7608L24.8599 8.94851Z" fill="#FF8087"/>
<path fill-rule="evenodd" clip-rule="evenodd" d="M20.9482 10.7605V16.0461C20.9482 16.2257 21.1476 16.3436 21.3193 16.2655L24.5675 14.788C24.7463 14.7067 24.8599 14.5362 24.8599 14.3492V8.94824L20.9482 10.7605Z" fill="#E6646E"/>
<defs>
<linearGradient id="paint0_linear_353_6699" x1="4.23291" y1="17.9414" x2="4.23291" y2="20.8369" gradientUnits="userSpaceOnUse">
<stop stop-color="#00D059"/>
<stop offset="1" stop-color="#2BC48C"/>
</linearGradient>
</defs>
</svg>
