<svg width="180" height="180" viewBox="0 0 180 180" fill="none" xmlns="http://www.w3.org/2000/svg">
<path style="mix-blend-mode:multiply" opacity="0.4" d="M180 153.752C180 168.249 139.706 180.001 90.0001 180.001C40.2942 180.001 0 168.249 0 153.752C0 139.256 40.2942 127.512 90.0001 127.512C139.706 127.512 180 139.256 180 153.752Z" fill="url(#paint0_linear_1_16067)"/>
<path d="M167.726 94.6291C167.726 139.003 154.997 160.75 89.9994 160.75C25.0014 160.75 12.2695 139.022 12.2695 94.6291C12.2695 50.2365 47.0723 0 89.9994 0C132.927 0 167.726 50.2553 167.726 94.6291Z" fill="url(#paint1_linear_1_16067)"/>
<path style="mix-blend-mode:multiply" opacity="0.5" d="M89.9954 153.305C27.4194 153.305 13.2982 133.164 12.3309 92.0693C12.3054 92.9267 12.2617 93.7879 12.2617 94.6378C12.2617 139.012 24.99 160.759 89.9916 160.759C154.993 160.759 167.718 139.03 167.718 94.6378C167.718 93.7879 167.682 92.9267 167.656 92.0693C166.692 133.164 152.575 153.305 89.9954 153.305Z" fill="url(#paint2_linear_1_16067)"/>
<path d="M27.9688 94.8487C27.9688 97.2662 28.8976 99.5847 30.5507 101.294C32.2039 103.004 34.4461 103.964 36.784 103.964C39.122 103.964 41.3642 103.004 43.0174 101.294C44.6705 99.5847 45.5993 97.2662 45.5993 94.8487C45.5993 89.8171 41.6535 75.3203 36.784 75.3203C31.9146 75.3203 27.9688 89.8209 27.9688 94.8487Z" fill="#EDEEEF"/>
<path fill-rule="evenodd" clip-rule="evenodd" d="M61.0038 40.2368C61.6925 40.0527 62.2848 39.5984 62.655 38.9703C63.0251 38.3421 63.1439 37.5896 62.9864 36.8723C62.8288 36.155 62.4071 35.5295 61.8108 35.1284C61.2146 34.7273 60.4907 34.5822 59.7927 34.7239L47.7627 37.5593C47.1085 37.7143 46.5322 38.1126 46.1436 38.6784C45.755 39.2443 45.5813 39.9382 45.6554 40.628C45.7295 41.3178 46.0464 41.9553 46.5456 42.4192C47.0448 42.8831 47.6915 43.1408 48.3627 43.1436C48.5709 43.1434 48.7784 43.1182 48.981 43.0684L61.0038 40.2368Z" fill="#794A2C"/>
<path fill-rule="evenodd" clip-rule="evenodd" d="M118.986 40.2368C118.297 40.0527 117.705 39.5984 117.335 38.9703C116.965 38.3421 116.846 37.5896 117.003 36.8723C117.161 36.155 117.583 35.5295 118.179 35.1284C118.775 34.7273 119.499 34.5822 120.197 34.7239L132.234 37.5593C132.889 37.7144 133.466 38.1134 133.855 38.68C134.243 39.2467 134.416 39.9414 134.341 40.6317C134.266 41.322 133.948 41.9596 133.447 42.4229C132.947 42.8861 132.299 43.1427 131.627 43.1436C131.421 43.1438 131.216 43.1186 131.016 43.0684L118.986 40.2368Z" fill="#794A2C"/>
<path d="M131.754 68.4921C130.942 69.3316 129.978 69.9975 128.917 70.4518C127.856 70.9062 126.719 71.1401 125.571 71.1401C124.423 71.1401 123.286 70.9062 122.225 70.4518C121.165 69.9975 120.201 69.3316 119.389 68.4921C118.577 67.6525 117.933 66.6559 117.494 65.559C117.054 64.4621 116.828 63.2864 116.828 62.0992C116.828 60.9119 117.054 59.7363 117.494 58.6395C117.933 57.5426 118.577 56.5459 119.389 55.7064C122.804 52.1753 125.146 55.4657 128.557 58.9968C131.968 62.5279 135.179 64.9647 131.754 68.4921Z" fill="#794A2C"/>
<path d="M48.2239 68.4921C49.8636 70.1875 52.0874 71.1401 54.4062 71.1401C56.725 71.1401 58.9489 70.1875 60.5885 68.4921C62.2282 66.7966 63.1493 64.4969 63.1493 62.0992C63.1493 59.7014 62.2282 57.4019 60.5885 55.7064C57.1737 52.1753 54.8317 55.4657 51.4205 58.9968C48.0094 62.5279 44.8091 64.9647 48.2239 68.4921Z" fill="#794A2C"/>
<path d="M27.9688 94.8487C27.9688 97.2662 28.8976 99.5847 30.5507 101.294C32.2039 103.004 34.4461 103.964 36.784 103.964C39.122 103.964 41.3642 103.004 43.0174 101.294C44.6705 99.5847 45.5993 97.2662 45.5993 94.8487C45.5993 89.8171 41.6535 75.3203 36.784 75.3203C31.9146 75.3203 27.9688 89.8209 27.9688 94.8487Z" fill="#EDEEEF"/>
<g filter="url(#filter0_d_1_16067)">
<path d="M100.262 84.7748L90.6373 90.3498C90.2498 90.5748 89.7623 90.5748 89.3623 90.3498L79.7373 84.7748C79.0498 84.3748 78.8748 83.4373 79.3998 82.8498C79.7623 82.4373 80.1748 82.0998 80.6123 81.8623L87.3873 78.1123C88.8373 77.2998 91.1873 77.2998 92.6373 78.1123L99.4123 81.8623C99.8498 82.0998 100.262 82.4498 100.625 82.8498C101.125 83.4373 100.95 84.3748 100.262 84.7748Z" fill="#EDEEEF"/>
<path d="M89.2871 92.6746V101.2C89.2871 102.15 88.3246 102.775 87.4746 102.362C84.8996 101.1 80.5621 98.7371 80.5621 98.7371C79.0371 97.8746 77.7871 95.6996 77.7871 93.9121V87.4621C77.7871 86.4746 78.8246 85.8496 79.6746 86.3371L88.6621 91.5496C89.0371 91.7871 89.2871 92.2121 89.2871 92.6746Z" fill="#EDEEEF"/>
<path d="M90.7129 92.6746V101.2C90.7129 102.15 91.6754 102.775 92.5254 102.362C95.1004 101.1 99.4379 98.7371 99.4379 98.7371C100.963 97.8746 102.213 95.6996 102.213 93.9121V87.4621C102.213 86.4746 101.175 85.8496 100.325 86.3371L91.3379 91.5496C90.9629 91.7871 90.7129 92.2121 90.7129 92.6746Z" fill="#EDEEEF"/>
</g>
<defs>
<filter id="filter0_d_1_16067" x="71" y="75" width="38" height="38" filterUnits="userSpaceOnUse" color-interpolation-filters="sRGB">
<feFlood flood-opacity="0" result="BackgroundImageFix"/>
<feColorMatrix in="SourceAlpha" type="matrix" values="0 0 0 0 0 0 0 0 0 0 0 0 0 0 0 0 0 0 127 0" result="hardAlpha"/>
<feOffset dy="4"/>
<feGaussianBlur stdDeviation="2"/>
<feComposite in2="hardAlpha" operator="out"/>
<feColorMatrix type="matrix" values="0 0 0 0 0 0 0 0 0 0 0 0 0 0 0 0 0 0 0.25 0"/>
<feBlend mode="normal" in2="BackgroundImageFix" result="effect1_dropShadow_1_16067"/>
<feBlend mode="normal" in="SourceGraphic" in2="effect1_dropShadow_1_16067" result="shape"/>
</filter>
<linearGradient id="paint0_linear_1_16067" x1="90" y1="127.512" x2="90" y2="180.001" gradientUnits="userSpaceOnUse">
<stop stop-color="#242151" stop-opacity="0.537"/>
<stop offset="0.401" stop-color="#262353" stop-opacity="0.796"/>
<stop offset="1" stop-color="#2E2B5D" stop-opacity="0.447"/>
</linearGradient>
<linearGradient id="paint1_linear_1_16067" x1="12.2695" y1="80.375" x2="167.726" y2="80.375" gradientUnits="userSpaceOnUse">
<stop stop-color="#8B21CA"/>
<stop offset="0.3" stop-color="#F0A613"/>
<stop offset="0.67" stop-color="#FA4E0A"/>
<stop offset="1" stop-color="#29206F"/>
</linearGradient>
<linearGradient id="paint2_linear_1_16067" x1="89.9899" y1="86.3681" x2="89.9899" y2="166.322" gradientUnits="userSpaceOnUse">
<stop stop-color="#00D059"/>
<stop offset="0.25" stop-color="#C4FFBA"/>
<stop offset="0.6" stop-color="#2BC48C"/>
<stop offset="1" stop-color="#27AE60"/>
</linearGradient>
</defs>
</svg>
